<svg width="100" height="100" viewBox="0 0 100 100" fill="none" xmlns="http://www.w3.org/2000/svg">
<rect width="100" height="100" fill="#09090B"/>
<path d="M11.3152 20.2868C11.3152 19.1822 12.2106 18.2868 13.3152 18.2868H18.9099C20.0092 18.2868 20.9024 19.174 20.9098 20.2733L21.3016 78.2733C21.3091 79.3831 20.4115 80.2868 19.3016 80.2868H13.3152C12.2106 80.2868 11.3152 79.3914 11.3152 78.2868V20.2868Z" fill="#FAFAFA"/>
<rect x="47.3152" y="18.2868" width="10" height="62" rx="2" fill="#FAFAFA"/>
<path d="M47.2771 19.6122C47.842 18.6188 49.1231 18.2999 50.0878 18.9126L55.357 22.2589C56.2617 22.8335 56.5527 24.0191 56.0168 24.9472L38.9754 54.4637C38.4232 55.4203 37.2 55.7481 36.2434 55.1958L31.036 52.1893C30.0838 51.6395 29.7539 50.4243 30.2975 49.4685L47.2771 19.6122Z" fill="#FAFAFA"/>
<path d="M78.1558 18.8726C78.5309 18.4975 79.0396 18.2868 79.57 18.2868H86.6289C88.3902 18.2868 89.2915 20.3988 88.073 21.6705L56.782 54.3268C56.0063 55.1364 54.7166 55.1502 53.9237 54.3573L49.7116 50.1452C48.9306 49.3642 48.9306 48.0978 49.7116 47.3168L78.1558 18.8726Z" fill="#FAFAFA"/>
<path d="M11.3152 23.4222L18.0461 18.9597C19.0056 18.3235 20.3028 18.6268 20.8809 19.6225L39.2099 51.1958L32.0472 55.3312C31.0907 55.8834 29.8675 55.5557 29.3152 54.5991L11.3152 23.4222Z" fill="#FAFAFA"/>
<path d="M48.7294 51.7721C47.9484 50.991 47.9484 49.7247 48.7294 48.9437L52.9609 44.7122C53.7463 43.9268 55.0212 43.9318 55.8004 44.7234L87.9653 77.399C89.21 78.6634 88.3143 80.8021 86.54 80.8021L78.5878 80.8021C78.0574 80.8021 77.5487 80.5913 77.1736 80.2163L48.7294 51.7721Z" fill="#FAFAFA"/>
<path d="M29.3152 50.2868C29.3152 49.1822 30.2106 48.2868 31.3152 48.2868H36.5642C37.5666 48.2868 38.4141 49.0289 38.5466 50.0225L39.0133 53.5225C39.1731 54.7214 38.2404 55.7868 37.0308 55.7868H31.3152C30.2106 55.7868 29.3152 54.8914 29.3152 53.7868V50.2868Z" fill="#FAFAFA"/>
</svg>
