<svg width="500" height="500" viewBox="0 0 500 500" fill="none" xmlns="http://www.w3.org/2000/svg">
<rect x="50" y="50" width="400" height="400" rx="10" fill="url(#paint0_linear_251_16)"/>
<path d="M369.063 98.1925C370.013 97.0604 371.415 96.4065 372.893 96.4065L401.173 96.4065C405.438 96.4065 407.745 101.404 404.978 104.65L268.204 265.123C266.423 267.213 263.289 267.475 261.185 265.71L245.835 252.829C243.719 251.054 243.443 247.901 245.218 245.785L369.063 98.1925Z" fill="#D9D9D9"/>
<rect x="89.0044" y="99.4065" width="30" height="300" rx="5" fill="#D9D9D9"/>
<path d="M242.239 102.511C243.448 99.788 246.755 98.7193 249.329 100.221L267.504 110.823C269.736 112.125 270.608 114.914 269.516 117.255L195.003 277.05C194.182 278.811 192.415 279.937 190.472 279.937L171.193 279.937C167.576 279.937 165.156 276.215 166.623 272.908L242.239 102.511Z" fill="#D9D9D9"/>
<rect x="242.004" y="99.4065" width="30" height="300" rx="5" fill="#D9D9D9"/>
<path d="M91.0081 117.149C89.9059 114.786 90.8054 111.972 93.0742 110.686L111.716 100.12C114.283 98.6655 117.545 99.7381 118.748 102.432L194.863 272.981C196.339 276.288 193.919 280.019 190.298 280.019L170.141 280.019C168.198 280.019 166.43 278.893 165.609 277.132L91.0081 117.149Z" fill="#D9D9D9"/>
<path d="M245.218 253.52C243.443 251.405 243.719 248.251 245.835 246.476L261.185 233.596C263.289 231.83 266.423 232.092 268.204 234.183L404.978 394.656C407.745 397.902 405.438 402.899 401.173 402.899L372.893 402.899C371.415 402.899 370.013 402.245 369.063 401.113L245.218 253.52Z" fill="#D9D9D9"/>
<defs>
<linearGradient id="paint0_linear_251_16" x1="250" y1="50" x2="250" y2="450" gradientUnits="userSpaceOnUse">
<stop stop-color="#6366F1" stop-opacity="0.8"/>
<stop offset="1" stop-color="#6366F1"/>
</linearGradient>
</defs>
</svg>
